<svg version="1.1" xmlns="http://www.w3.org/2000/svg" xmlns:xlink="http://www.w3.org/1999/xlink" width="212.00705" height="335.02549" viewBox="0,0,212.00705,335.02549"><g transform="translate(-215.25764,59.25095)"><g data-paper-data="{&quot;isPaintingLayer&quot;:true}" fill-rule="nonzero" stroke-linejoin="miter" stroke-miterlimit="10" stroke-dasharray="" stroke-dashoffset="0" style="mix-blend-mode: normal"><path d="M316.30537,268.27454v-100.5" fill="none" stroke="#803100" stroke-width="15" stroke-linecap="round"/><path d="M375.52412,103.64563h-118" fill="none" stroke="#2bcc00" stroke-width="15" stroke-linecap="round"/><path d="M316.52412,50.64563v114.5" fill="none" stroke="#2bcc00" stroke-width="15" stroke-linecap="round"/><text transform="translate(377.52412,47.14661) scale(0.68782,0.68782)" font-size="40" xml:space="preserve" fill="#020202" fill-rule="nonzero" stroke-opacity="0" stroke="#000000" stroke-width="0" stroke-linecap="butt" stroke-linejoin="miter" stroke-miterlimit="10" stroke-dasharray="" stroke-dashoffset="0" font-family="Sans Serif" font-weight="normal" text-anchor="start" style="mix-blend-mode: normal"><tspan x="0" dy="0">®</tspan></text><path d="M255.6256,103.77907c0,-34.19183 27.71796,-61.90979 61.90979,-61.90979c34.19183,0 61.90979,27.71796 61.90979,61.90979c0,34.19183 -27.71796,61.90979 -61.90979,61.90979c-34.19183,0 -61.90979,-27.71796 -61.90979,-61.90979z" fill="none" stroke="#2bcc00" stroke-width="15" stroke-linecap="butt"/><path d="M314.91117,221.64388l-58.30118,-24.22906" fill="none" stroke="#7f3100" stroke-width="15" stroke-linecap="round"/><path d="M377.45519,197.87187l-58.30118,24.22906" data-paper-data="{&quot;index&quot;:null}" fill="none" stroke="#802b00" stroke-width="15" stroke-linecap="round"/><path d="M243.08662,198.27317c0,-8.83656 7.16344,-16 16,-16c8.83656,0 16,7.16344 16,16c0,8.83656 -7.16344,16 -16,16c-8.83656,0 -16,-7.16344 -16,-16z" fill="#25cc00" stroke="#2bcc00" stroke-width="0" stroke-linecap="butt"/><path d="M363.58662,198.27318c0,-8.83656 7.16345,-16 16,-16c8.83655,0 16,7.16344 16,16c0,8.83656 -7.16345,16 -16,16c-8.83655,0 -16,-7.16344 -16,-16z" fill="#25cc00" stroke="#2bcc00" stroke-width="0" stroke-linecap="butt"/><path d="M215.25764,-29.62805v-29.6229h212.00705v29.6229z" fill="none" stroke="none" stroke-width="0" stroke-linecap="butt"/></g></g></svg>